<svg width="667" height="667" viewBox="0 0 667 667" fill="none" xmlns="http://www.w3.org/2000/svg">
<g clip-path="url(#clip0_1209_1650)">
<path d="M431.8 21.76C484.107 38.2933 531.893 69.36 569.293 109.373C591.4 133.427 610.24 160.693 624.44 190.133C643.6 229.627 654.08 272.827 656.533 316.613C656.733 330.587 657.16 344.707 655.853 358.64C653.893 382.68 649.413 406.587 642.387 429.667C624.68 488.04 589.827 541.107 543.693 580.96C509.32 610.613 469.067 633.133 425.48 645.947C370.707 662.307 311.333 663.96 255.853 650.04C201.947 637.2 152.6 609.547 112.147 571.827C67.9067 530.027 35.24 475.84 20.0267 416.827C14.0667 393.067 9.93337 368.533 9.53337 344C7.96004 306.813 13.3867 269.467 24.32 233.933C40.5867 181.6 70.7734 133.56 110.333 95.68C140.56 66.9733 176.373 43.6 215.28 28.5067C283.96 1.45332 361.573 -0.973344 431.8 21.76Z" fill="#339933"/>
<path d="M437.08 89.6533C482.12 109.4 521.627 142.027 549.2 182.773C577.187 223.04 592.827 271.08 595.16 319.987C595.373 330.587 595.453 341.24 594.893 351.827C594 359.987 593.24 368.187 592.08 376.307C589.28 391.653 585.72 406.84 580.44 421.533C558.707 483.827 512.867 537.013 454.427 567.68C417.573 587.333 376.333 597.013 334.667 597.733C295.52 597.573 256.613 589.427 221.213 572.52C167.2 546.853 122.8 502.36 96.8134 448.533C81.2 416.227 72.3467 380.493 70.96 344.64C69.1334 329.987 71.96 316.12 71.8 301.427C71.96 302.467 72.1067 303.52 72.2667 304.56C73.08 290.013 76.76 275.333 80.28 261.24C95.5467 205.107 130.573 154.48 177.24 119.84C212.893 92.9467 255.64 75.76 299.947 70.2933C346.387 64.3733 394.107 71.0533 437.08 89.6533Z" fill="white"/>
<path d="M204.027 187.507C209.36 188.147 213.04 194.48 209.653 199.2C207.173 203.267 203.76 202.04 199.707 202.093C198.667 201.013 197.627 199.933 196.573 198.867C196.467 196.453 196.093 193.733 196.733 191.387C198.52 189.027 200.867 187.053 204.027 187.507Z" fill="#231F20"/>
<path d="M163.947 214.827C172.52 214.267 178.96 218.88 185.093 224.24C183.093 226.293 181.093 228.347 179.08 230.387C175.373 227.133 171.747 224.253 166.72 223.493C160.573 222.413 153.933 226.773 154.013 233.333C154.36 238.653 159.16 242.173 163.36 244.667C170.493 248.613 177.893 251.68 182.613 258.787C185.28 262.653 185 267.64 184.64 272.107C183.947 277.72 180.267 281.987 175.947 285.32C170.747 289.2 163.44 289.48 157.307 288.28C151.213 286.933 146.587 283.307 142.467 278.787C144.4 276.653 146.427 274.693 148.773 273.027C153.667 277.347 158.4 281.147 165.4 280.08C173.067 278.827 179.107 271.013 175.093 263.453C170.733 256.693 159.947 253.987 153.84 248.907C148.347 245.027 145.267 238.613 145.867 231.893C146.267 222.52 154.587 214.76 163.947 214.827Z" fill="#231F20"/>
<path d="M280.107 222.56C286.32 229.053 287.427 238.08 287.587 246.68C287.64 260.2 287.667 273.733 287.56 287.253C284.493 287.253 281.427 287.253 278.373 287.24C278.227 273.067 278.493 258.88 278.227 244.72C278.067 238.2 276.533 230.507 270.987 226.387C262.613 220.92 251.253 222.773 244.107 229.44C237.467 235.027 235.587 243.707 235.373 252C235.187 263.747 235.347 275.493 235.28 287.24C232.227 287.24 229.173 287.253 226.133 287.253C226.067 263.653 226.107 240.04 226.107 216.44C229.16 216.467 232.213 216.493 235.267 216.533C235.28 220.613 235.32 224.68 235.387 228.76C238.773 224.88 242.013 221.16 246.613 218.68C256.933 212.56 271.813 213.307 280.107 222.56Z" fill="#231F20"/>
<path d="M337.387 214.933C347.507 215.747 355.053 221.28 361.8 228.4C361.827 224.413 361.84 220.427 361.853 216.427C364.933 216.453 368 216.48 371.08 216.52C371.067 235.893 371.093 255.307 371.067 274.667C370.267 284.053 370.347 292.507 365 300.707C360.453 308.093 353.28 311.107 345.413 313.76C334.787 314.6 324.72 315.387 314.8 310.64C306.8 307.32 301.587 300.627 298.52 292.733C301.693 292.693 304.867 292.693 308.04 292.747C312.04 298.467 316.787 303.027 323.693 304.867C333.6 307.48 345.173 306.653 353.6 300.32C357.013 297.933 358.667 294.52 360.373 290.867C361.253 285.293 362.133 279.88 361.893 274.213C356.707 279.293 351.107 283.613 344.027 285.653C330.76 289.987 315.493 285.227 306.133 275.16C295.093 262.68 294.453 243.187 304.227 229.76C311.72 219.413 324.64 213.547 337.387 214.933Z" fill="#231F20"/>
<path d="M199.12 216.56C201.947 216.347 204.813 216.44 207.653 216.44C207.693 240.053 207.733 263.667 207.64 287.28C204.773 287.267 201.907 287.253 199.04 287.267C199.013 263.733 198.827 240.08 199.12 216.56Z" fill="#231F20"/>
<path d="M352.68 230C357.693 233.907 359.88 239.293 361.813 245.16C362.373 252.68 362.333 259.667 358.187 266.267C351.453 277.747 336.28 280.68 324.307 276.88C316.253 274.307 310.413 267.907 307.493 260.12C306.667 251.6 306.04 243.733 311.067 236.28C319.84 222.52 340.253 219.347 352.68 230Z" fill="white"/>
<path d="M406.16 270.2C406.2 272.427 406.253 274.653 406.293 276.88C402.267 275.72 399.307 274.947 395.227 276.667C394.44 281.227 394.373 285.773 394.48 290.373C398.347 290.267 402.093 290.413 405.893 291.147C405.827 292.973 405.773 294.8 405.707 296.627C401.973 296.667 398.253 296.68 394.52 296.693C394.307 312.213 394.533 327.733 394.373 343.267C392.12 343.253 389.853 343.253 387.6 343.253C387.56 327.733 387.587 312.2 387.587 296.667C385.293 296.667 383.013 296.667 380.72 296.667C380.693 294.76 380.667 292.853 380.64 290.947C382.907 290.92 385.173 290.893 387.427 290.88C387.667 286.04 387.267 281 388.173 276.24C388.813 272.92 391.453 270.373 394.653 269.467C398.28 268.173 402.48 269.587 406.16 270.2Z" fill="#231F20"/>
<path d="M432.48 289.84C444.387 287.013 457.8 293.92 462.72 305.12C465.573 310.613 465.227 316.613 464.747 322.627C462.413 335.413 450.493 345.373 437.333 344.613C424.547 344.88 413.267 335.213 411.187 322.72C410.467 315.96 410.573 309.373 413.933 303.267C417.907 296.427 424.613 291.253 432.48 289.84Z" fill="#231F20"/>
<path d="M493.293 288.987C495.427 289.507 497.533 290.08 499.653 290.653C498.627 292.68 497.547 294.667 496.44 296.653C493.2 296.547 489.973 295.467 487.307 297.893C482.4 301.333 480.773 307.613 480.507 313.293C480.24 323.267 480.44 333.253 480.373 343.227C478.28 343.28 476.187 343.28 474.093 343.213C472.347 341.587 473.12 339.533 472.907 337.32C472.96 321.96 473.04 306.587 472.867 291.24C475.627 290.547 477.587 290.267 480.373 291.187C480.467 293.44 480.573 295.707 480.68 297.973C483.32 292.867 487.827 290.2 493.293 288.987Z" fill="#231F20"/>
<path d="M455.2 305.987C460.4 314.187 459.133 325.4 452.253 332.253C445.16 339.48 432.84 339.973 425.027 333.627C421.68 331.093 420.04 327.68 418.133 324.067C417.64 319.427 417.64 315.093 418.12 310.453C420.227 306.213 422.267 302.293 426.44 299.707C435.773 293 449.44 296.107 455.2 305.987Z" fill="white"/>
<path d="M123.107 323.8C127.173 323.693 131.133 323.853 135.16 324.4C135.013 341.067 135.013 357.747 135.053 374.427C139.427 369.867 143.173 365.36 148.773 362.213C156.68 357.307 166.333 355.787 175.453 357.293C184.653 358.733 192.907 365.293 197.4 373.307C201.36 381.253 202.16 391.253 202.133 400C202.133 416.707 202.173 433.413 202.12 450.12C198.187 450.12 194.253 450.093 190.333 450.027C190.267 431.24 190.427 412.467 190.227 393.693C190.24 387.8 188.987 382.08 185.787 377.08C181.413 369.547 171.2 366.427 162.973 367.627C147.947 369.52 135.853 383.573 135.44 398.573C134.747 415.68 135.213 432.853 135.093 449.973C131.093 450.093 127.093 450.12 123.08 450.147C123.04 408.027 122.987 365.92 123.107 323.8Z" fill="#339933"/>
<path d="M417.227 365.4C425.387 371.907 432.213 380.12 435.013 390.36C438.827 403.853 437.093 419.867 428.933 431.507C421.933 441.453 412.08 449.093 399.96 451.52C382.613 455.173 365.013 448.587 354.253 434.573C353.827 450.747 354.187 466.933 354.053 483.093C350.16 483.12 346.28 483.133 342.387 483.12C342.4 441.813 342.387 400.493 342.4 359.173C346.293 359.16 350.173 359.173 354.067 359.2C354.04 364.587 354.053 369.973 354.16 375.36C357.467 371.453 360.613 367.707 364.773 364.667C379.747 353.547 402.453 354.24 417.227 365.4Z" fill="#339933"/>
<path d="M264 357.12C275.6 355.8 287.32 357.6 297.093 364.307C306.933 371.227 314.827 381.867 317.12 393.84C319.187 404.027 318.413 415.173 314.187 424.733C310.667 432.24 305.173 438.867 298.613 443.907C286.547 452.893 269.44 454.587 255.32 450.133C235.627 443.693 222.24 423.253 223.493 402.667C223.933 380.347 241.56 359.667 264 357.12Z" fill="#339933"/>
<path d="M509.813 357.4C519.64 358.88 528.813 363.84 535.413 371.267C544.333 380.56 548.16 393.08 547.88 405.8C520.613 405.813 493.347 405.64 466.093 405.893C467.107 411.267 467.44 417.267 469.947 422.093C474.173 430.653 481.973 437.867 491.32 440.347C500.027 442.493 509.467 441.573 517.533 437.587C525.133 434.147 530.867 427.427 534.72 420.16C538.613 420.987 541.747 423.08 545.107 425.093C543.507 427.907 541.933 430.707 540.053 433.347C532.973 443.84 520.8 450.773 508.293 452.12C496.467 453.373 483.973 451.52 474.107 444.533C465.493 438.08 459.133 428.707 456.053 418.427C453.813 409.92 453.8 400.773 455.733 392.213C458.627 381.013 465.533 371.053 474.893 364.28C485.027 357.2 497.8 355.613 509.813 357.4Z" fill="#339933"/>
<path d="M262.107 369.227C265.693 368.267 269.653 368.347 273.347 368.427C282.573 368.6 291.08 373.48 297.107 380.28C310.053 394.04 309.24 418.547 295.44 431.427C284.64 442.013 266.933 444.227 253.773 436.88C240.08 429.867 233.04 412.68 236.04 397.907C238.36 384.533 249.027 372.8 262.107 369.227Z" fill="white"/>
<path d="M376.6 370.147C389.72 365.907 404.96 368.427 414.653 378.733C421.067 385.813 425.413 395.653 424.893 405.333C425.093 412.853 422.187 419.933 418.147 426.133C411.2 436.72 397.92 442.76 385.373 441.267C369.707 439.613 356.187 427.907 353.88 412.053C350.333 394.733 359.827 376.267 376.6 370.147Z" fill="white"/>
<path d="M500 368.307C510.2 367.64 520.56 371.653 527.387 379.307C531.547 383.827 533.68 389.413 534.747 395.387C512.453 395.4 490.173 395.4 467.893 395.387C470.48 380.093 484.147 367.613 500 368.307Z" fill="white"/>
</g>
<defs>
<clipPath id="clip0_1209_1650">
<rect width="666.667" height="666.667" fill="white"/>
</clipPath>
</defs>
</svg>
