<svg width="512" height="512" viewBox="0 0 512 512" fill="none" xmlns="http://www.w3.org/2000/svg">
<path d="M334.114 12.1152C375.475 25.0756 413.261 49.4288 442.835 80.7949C460.316 99.6508 475.213 121.025 486.442 144.103C501.592 175.062 509.879 208.926 511.819 243.25C511.977 254.204 512.315 265.273 511.281 276.195C509.731 295.04 506.189 313.781 500.633 331.873C486.631 377.631 459.072 419.231 422.592 450.471C395.412 473.716 363.582 491.37 329.116 501.415C285.805 514.239 238.856 515.535 194.986 504.623C152.36 494.558 113.34 472.881 81.3519 443.312C46.3694 410.545 20.5386 368.068 8.5089 321.808C3.7961 303.182 0.52772 283.95 0.211425 264.719C-1.03267 235.568 3.2584 206.292 11.9038 178.437C24.7665 137.414 48.6363 99.7551 79.9175 70.061C103.819 47.5579 132.138 29.2356 162.903 17.4039C217.211 -3.80316 278.583 -5.70542 334.114 12.1152Z" fill="#339933"/>
<path d="M338.292 65.3376C373.907 80.817 405.146 106.393 426.949 138.334C449.08 169.899 461.447 207.558 463.292 245.896C463.46 254.205 463.523 262.556 463.08 270.855C462.374 277.252 461.773 283.68 460.856 290.045C458.642 302.075 455.827 313.98 451.652 325.498C434.467 374.33 398.219 416.022 352.009 440.062C322.867 455.468 290.257 463.056 257.31 463.621C226.355 463.495 195.59 457.11 167.597 443.856C124.887 423.736 89.7786 388.858 69.23 346.663C56.8839 321.338 49.8832 293.326 48.7867 265.221C47.3423 253.735 49.5774 242.865 49.4509 231.347C49.5774 232.162 49.6934 232.987 49.82 233.803C50.4631 222.399 53.373 210.892 56.1564 199.844C68.2283 155.842 95.925 116.155 132.826 89.0009C161.019 67.9193 194.82 54.4466 229.855 50.1613C266.577 45.5206 304.311 50.7571 338.292 65.3376Z" fill="white"/>
<path d="M154.004 142.043C158.221 142.544 161.131 147.509 158.452 151.209C156.491 154.397 153.792 153.435 150.588 153.476C149.765 152.63 148.943 151.783 148.109 150.948C148.026 149.055 147.73 146.923 148.236 145.084C149.649 143.234 151.505 141.687 154.004 142.043Z" fill="#231F20"/>
<path d="M122.315 163.461C129.094 163.022 134.186 166.638 139.036 170.84C137.455 172.449 135.873 174.059 134.281 175.658C131.35 173.108 128.483 170.85 124.508 170.254C119.647 169.408 114.397 172.825 114.46 177.968C114.734 182.138 118.53 184.898 121.851 186.853C127.491 189.946 133.343 192.35 137.075 197.921C139.184 200.952 138.963 204.861 138.678 208.363C138.13 212.763 135.22 216.108 131.804 218.72C127.692 221.762 121.914 221.981 117.065 221.041C112.246 219.985 108.588 217.142 105.33 213.599C106.859 211.926 108.461 210.39 110.316 209.084C114.186 212.47 117.929 215.449 123.464 214.613C129.527 213.631 134.303 207.505 131.129 201.579C127.681 196.28 119.152 194.158 114.323 190.176C109.98 187.135 107.544 182.107 108.019 176.839C108.335 169.492 114.914 163.408 122.315 163.461Z" fill="#231F20"/>
<path d="M214.162 169.521C219.075 174.611 219.951 181.687 220.077 188.429C220.119 199.027 220.14 209.636 220.056 220.234C217.631 220.234 215.206 220.234 212.791 220.224C212.676 209.114 212.886 197.992 212.676 186.892C212.549 181.781 211.336 175.751 206.951 172.521C200.329 168.236 191.347 169.688 185.696 174.914C180.445 179.294 178.959 186.098 178.79 192.599C178.643 201.808 178.769 211.015 178.716 220.224C176.302 220.224 173.887 220.234 171.483 220.234C171.431 201.734 171.463 183.224 171.463 164.724C173.877 164.745 176.291 164.765 178.706 164.797C178.716 167.995 178.748 171.183 178.801 174.381C181.478 171.34 184.04 168.424 187.678 166.48C195.838 161.682 207.604 162.268 214.162 169.521Z" fill="#231F20"/>
<path d="M259.459 163.543C267.461 164.182 273.428 168.519 278.763 174.1C278.785 170.975 278.795 167.85 278.805 164.715C281.241 164.735 283.666 164.756 286.102 164.787C286.091 179.974 286.112 195.193 286.091 210.369C285.459 217.727 285.522 224.354 281.294 230.782C277.698 236.571 272.026 238.934 265.806 241.014C257.403 241.672 249.443 242.289 241.599 238.568C235.273 235.965 231.151 230.719 228.726 224.531C231.235 224.499 233.744 224.499 236.253 224.542C239.416 229.026 243.17 232.6 248.631 234.043C256.465 236.091 265.616 235.443 272.279 230.478C274.978 228.607 276.286 225.932 277.635 223.068C278.331 218.699 279.027 214.455 278.837 210.013C274.736 213.995 270.308 217.382 264.71 218.981C254.219 222.378 242.147 218.647 234.745 210.755C226.016 200.972 225.51 185.692 233.238 175.166C239.163 167.055 249.38 162.457 259.459 163.543Z" fill="#231F20"/>
<path d="M150.129 164.819C152.364 164.652 154.631 164.725 156.876 164.725C156.908 183.235 156.94 201.746 156.866 220.256C154.599 220.246 152.333 220.235 150.066 220.246C150.044 201.798 149.897 183.256 150.129 164.819Z" fill="#231F20"/>
<path d="M271.549 175.354C275.513 178.417 277.243 182.639 278.771 187.238C279.214 193.133 279.182 198.61 275.904 203.784C270.579 212.783 258.581 215.082 249.114 212.103C242.745 210.086 238.127 205.069 235.818 198.965C235.165 192.286 234.669 186.119 238.644 180.277C245.581 169.49 261.723 167.003 271.549 175.354Z" fill="white"/>
<path d="M313.843 206.867C313.874 208.613 313.916 210.358 313.948 212.104C310.764 211.194 308.424 210.588 305.198 211.937C304.575 215.511 304.522 219.075 304.607 222.681C307.665 222.598 310.627 222.712 313.632 223.287C313.579 224.719 313.537 226.151 313.485 227.583C310.532 227.615 307.59 227.625 304.639 227.635C304.47 239.801 304.649 251.967 304.522 264.144C302.741 264.133 300.948 264.133 299.167 264.133C299.135 251.967 299.156 239.791 299.156 227.615C297.342 227.615 295.539 227.615 293.726 227.615C293.705 226.12 293.684 224.625 293.663 223.131C295.456 223.11 297.247 223.088 299.03 223.078C299.22 219.284 298.903 215.333 299.62 211.602C300.126 208.999 302.213 207.003 304.744 206.293C307.612 205.278 310.933 206.387 313.843 206.867Z" fill="#231F20"/>
<path d="M334.649 222.262C344.064 220.046 354.67 225.46 358.561 234.24C360.817 238.546 360.543 243.249 360.163 247.963C358.318 257.986 348.892 265.794 338.486 265.198C328.376 265.408 319.456 257.83 317.812 248.036C317.242 242.737 317.326 237.574 319.983 232.787C323.125 227.425 328.428 223.369 334.649 222.262Z" fill="#231F20"/>
<path d="M382.742 221.595C384.43 222.003 386.095 222.452 387.772 222.901C386.96 224.49 386.106 226.048 385.231 227.605C382.669 227.522 380.117 226.675 378.009 228.577C374.129 231.273 372.842 236.196 372.632 240.649C372.421 248.467 372.579 256.295 372.526 264.114C370.871 264.155 369.216 264.155 367.56 264.103C366.18 262.828 366.791 261.218 366.622 259.483C366.664 247.443 366.728 235.392 366.591 223.361C368.773 222.818 370.323 222.599 372.526 223.32C372.6 225.086 372.684 226.863 372.769 228.639C374.856 224.637 378.42 222.546 382.742 221.595Z" fill="#231F20"/>
<path d="M352.618 234.921C356.729 241.349 355.728 250.139 350.287 255.511C344.679 261.177 334.937 261.563 328.759 256.588C326.112 254.602 324.815 251.927 323.307 249.094C322.918 245.457 322.918 242.06 323.297 238.422C324.963 235.099 326.576 232.026 329.876 229.999C337.256 224.741 348.063 227.177 352.618 234.921Z" fill="white"/>
<path d="M90.0145 248.883C93.2296 248.799 96.3609 248.924 99.5452 249.353C99.429 262.418 99.429 275.494 99.4606 288.569C102.919 284.995 105.881 281.462 110.31 278.995C116.562 275.149 124.195 273.957 131.406 275.138C138.681 276.267 145.208 281.409 148.761 287.691C151.892 293.92 152.525 301.759 152.503 308.616C152.503 321.713 152.535 334.808 152.493 347.905C149.383 347.905 146.272 347.884 143.173 347.832C143.12 333.105 143.247 318.389 143.089 303.672C143.099 299.052 142.108 294.569 139.578 290.649C136.119 284.744 128.043 282.298 121.538 283.239C109.656 284.723 100.093 295.739 99.7667 307.497C99.2187 320.908 99.5872 334.369 99.4923 347.79C96.3293 347.884 93.1664 347.905 89.9931 347.926C89.9615 314.908 89.9196 281.901 90.0145 248.883Z" fill="#339933"/>
<path d="M322.594 281.495C329.046 286.596 334.444 293.034 336.658 301.061C339.674 311.639 338.303 324.192 331.85 333.317C326.315 341.113 318.524 347.102 308.94 349.005C295.223 351.868 281.306 346.706 272.798 335.72C272.461 348.399 272.746 361.087 272.64 373.755C269.561 373.776 266.493 373.786 263.415 373.776C263.425 341.395 263.415 309.005 263.425 276.614C266.504 276.604 269.572 276.614 272.651 276.635C272.63 280.858 272.64 285.08 272.724 289.303C275.339 286.24 277.827 283.304 281.117 280.921C292.957 272.204 310.912 272.747 322.594 281.495Z" fill="#339933"/>
<path d="M201.425 275.003C210.597 273.968 219.865 275.379 227.593 280.637C235.373 286.061 241.615 294.402 243.429 303.787C245.063 311.773 244.451 320.51 241.109 328.004C238.326 333.889 233.982 339.084 228.794 343.035C219.253 350.079 205.726 351.407 194.561 347.915C178.989 342.867 168.403 326.844 169.394 310.707C169.742 293.21 183.68 276.999 201.425 275.003Z" fill="#339933"/>
<path d="M395.803 275.223C403.573 276.383 410.827 280.272 416.046 286.094C423.099 293.378 426.125 303.193 425.904 313.164C404.343 313.174 382.782 313.039 361.232 313.237C362.033 317.45 362.297 322.153 364.279 325.936C367.621 332.646 373.789 338.301 381.18 340.245C388.065 341.928 395.529 341.206 401.907 338.082C407.917 335.385 412.451 330.117 415.498 324.421C418.576 325.069 421.054 326.71 423.711 328.288C422.446 330.494 421.201 332.688 419.715 334.758C414.116 342.983 404.491 348.418 394.601 349.474C385.25 350.456 375.37 349.004 367.569 343.527C360.757 338.468 355.728 331.121 353.293 323.062C351.521 316.394 351.511 309.223 353.04 302.513C355.328 293.733 360.789 285.926 368.19 280.616C376.204 275.066 386.304 273.822 395.803 275.223Z" fill="#339933"/>
<path d="M199.933 284.493C202.769 283.74 205.9 283.803 208.821 283.866C216.117 284.001 222.843 287.827 227.609 293.157C237.846 303.944 237.203 323.155 226.291 333.251C217.751 341.55 203.749 343.285 193.343 337.526C182.516 332.029 176.949 318.556 179.321 306.975C181.156 296.491 189.59 287.294 199.933 284.493Z" fill="white"/>
<path d="M290.463 285.216C300.837 281.892 312.888 283.868 320.553 291.946C325.625 297.496 329.061 305.21 328.65 312.798C328.808 318.693 326.51 324.243 323.316 329.103C317.822 337.402 307.321 342.137 297.4 340.967C285.012 339.67 274.321 330.494 272.497 318.066C269.692 304.489 277.2 290.013 290.463 285.216Z" fill="white"/>
<path d="M388.045 283.771C396.111 283.248 404.303 286.394 409.701 292.394C412.991 295.937 414.678 300.316 415.521 304.999C397.893 305.009 380.275 305.009 362.657 304.999C364.703 293.01 375.51 283.227 388.045 283.771Z" fill="white"/>
</svg>
